<?xml version="1.0" standalone="no"?><!DOCTYPE svg PUBLIC "-//W3C//DTD SVG 1.1//EN" "http://www.w3.org/Graphics/SVG/1.1/DTD/svg11.dtd"><svg t="1629006410863" class="icon" viewBox="0 0 1421 1024" version="1.1" xmlns="http://www.w3.org/2000/svg" p-id="2213" xmlns:xlink="http://www.w3.org/1999/xlink" width="277.5390625" height="200"><defs><style type="text/css"></style></defs><path d="M706.028818 602.743516c-51.642651 106.236311-121.729107 250.097983-157.14121 315.020173s-61.971182 51.642651-84.103746 0C387.319885 737.752161 228.70317 416.092219 154.190202 236.818444a182.224784 182.224784 0 0 0-34.674352-62.708934 111.400576 111.400576 0 0 0-61.233429-14.755043Q40.576369 157.14121 40.576369 147.550432v-22.132565h295.100864V147.550432c0 6.639769-4.426513 9.590778-12.541786 9.590778h-30.985591c-26.559078 0-39.838617 8.853026-39.838617 23.60807a100.334294 100.334294 0 0 0 16.9683 40.576368c59.757925 147.550432 265.590778 579.135447 265.590778 579.135447h7.377522l132.795389-264.853026-26.559078-58.282421L557.002882 295.100865l-23.608069-47.953891c-39.838617-78.939481-39.100865-83.365994-79.677234-88.530259-11.066282 0-16.9683 0-16.968299-8.853026V125.417867h242.720461V147.550432c0 5.164265-4.426513 8.115274-12.541787 8.115274h-16.9683c-43.527378 3.688761-36.149856 21.394813-7.377521 78.201729l90.005763 183.700288 96.645533-192.553314c16.230548-35.412104 12.541787-44.26513 5.902018-52.380403a64.92219 64.92219 0 0 0-44.26513-13.279539h-11.066282a14.755043 14.755043 0 0 1-8.115274 0 8.853026 8.853026 0 0 1-3.688761-7.377522v-27.29683h221.325648V147.550432c0 6.639769 0 9.590778-10.32853 9.590778-35.412104 0-42.789625 5.164265-56.069164 24.345822l-35.412104 56.806916-119.51585 236.818444-3.688761 7.377522 153.45245 314.28242h9.590778l241.982709-574.708933c8.115274-22.870317 7.377522-39.838617 0-49.429395a66.397695 66.397695 0 0 0-47.216139-16.230548h-22.870317a14.755043 14.755043 0 0 1-8.115273 0 8.115274 8.115274 0 0 1-8.115274-8.853026v-22.132565h276.65706V147.550432c0 6.639769-4.426513 9.590778-11.804034 9.590778a147.550432 147.550432 0 0 0-79.677234 23.60807 141.648415 141.648415 0 0 0-39.838616 58.28242l-295.100865 679.469741c-28.772334 55.331412-58.282421 50.167147-82.628242 0-31.723343-64.92219-98.121037-208.783862-147.550432-314.282421z m0 0" fill="#27AA8D" p-id="2214"></path></svg>